<?xml version="1.0" encoding="utf-8"?>
<svg viewBox="0 0 24 24" fill="none" xmlns="http://www.w3.org/2000/svg">
  <path d="M4 12V11C4 6.58172 7.58172 3 12 3V3C16.4183 3 20 6.58172 20 11V12" stroke-linecap="round" stroke-width="0.5" style="stroke: rgb(27, 27, 27);"/>
  <path d="M16.6567 5.37241C16.3847 5.49251 16.0252 5.51842 15.8674 5.37241C15.1057 4.66727 13.8865 4 12 4C10.1136 4 8.89437 4.66727 8.13264 5.37241C7.97492 5.51842 7.61537 5.49251 7.34338 5.37241" stroke-linecap="round" stroke-width="0.5" style="stroke: rgb(41, 41, 41);"/>
  <path d="M 15.181 16.713 L 17.681 12.383 C 17.957 11.904 18.431 11.716 19.047 12.017 C 19.41 12.194 19.494 12.598 19.502 12.901 C 19.504 12.972 19.628 13.011 19.663 12.95 C 19.801 12.711 20.107 12.629 20.346 12.767 C 20.585 12.905 20.667 13.211 20.529 13.45 L 17.529 18.646 C 17.391 18.885 17.085 18.967 16.846 18.829 C 16.607 18.691 16.525 18.385 16.663 18.146 L 16.913 17.713 C 16.637 18.191 16.025 18.355 15.547 18.079 C 15.069 17.803 14.905 17.191 15.181 16.713 Z" style="fill: rgb(149, 117, 205);" transform="matrix(-1, 0, 0, -1, 35.64299, 30.767664)"/>
  <path d="M5.23204 13.085C4.95589 12.6067 4.3443 12.4428 3.86601 12.7189C3.38772 12.9951 3.22384 13.6067 3.49999 14.085L5.99999 18.4151C6.27613 18.8934 6.88772 19.0573 7.36601 18.7811C7.8443 18.505 8.00818 17.8934 7.73204 17.4151M5.23204 13.085L4.98204 12.6519C4.84397 12.4128 4.9259 12.107 5.16505 11.9689C5.4042 11.8309 5.70999 11.9128 5.84806 12.1519L8.84806 17.3481C8.98613 17.5872 8.9042 17.893 8.66505 18.0311C8.4259 18.1692 8.12011 18.0872 7.98204 17.8481L7.79454 17.5233M5.23204 13.085L6.73204 15.683M18.7679 13.085C19.0441 12.6067 19.6557 12.4428 20.1339 12.7189C20.6122 12.9951 20.7761 13.6067 20.5 14.085L18 18.4151C17.7238 18.8934 17.1122 19.0572 16.6339 18.7811C16.1557 18.505 15.9918 17.8934 16.2679 17.4151M18.7679 13.085L19.0179 12.6519C19.156 12.4128 19.0741 12.107 18.8349 11.9689C18.5958 11.8309 18.29 11.9128 18.1519 12.1519L15.1519 17.3481C15.0138 17.5872 15.0958 17.893 15.3349 18.0311C15.5741 18.1692 15.8798 18.0872 16.0179 17.8481L16.2054 17.5233M18.7679 13.085L17.2679 15.683" stroke-linecap="round" style="stroke: rgb(27, 27, 27); stroke-width: 0.5px;"/>
</svg>